<svg id="Layer_1" data-name="Layer 1" xmlns="http://www.w3.org/2000/svg" viewBox="0 0 492.01 268.45"><defs><style>.cls-1{fill:#e5f5fd;}.cls-2{fill:#b9c8db;}.cls-3{fill:#72bcef;}.cls-4{fill:#67b5f4;}.cls-5{fill:#50a6ea;}.cls-6{fill:#284268;}</style></defs><title>icono_avion_izq</title><path class="cls-1" d="M32,135.47a24.27,24.27,0,0,0-.62,45.37L160,231.78l-12.58-21.73,99.78,39.4,8.09,21.39.41-.16,93.41,36a32.62,32.62,0,0,0,11.36,2.06,64.38,64.38,0,0,0,42.37-14.62L496,218.45,472.16,209a63.71,63.71,0,0,0-59.69,6.82l-53.38,36.9-225.54-111A127.41,127.41,0,0,0,32,135.47Z" transform="translate(-10 -121.79)"/><path class="cls-2" d="M479.45,231.9,496,218.45,472.16,209a63.71,63.71,0,0,0-59.69,6.82l-53.38,36.9-99.92-49.19L197.08,173l-63.53-31.28A127.41,127.41,0,0,0,32,135.47a23.9,23.9,0,0,0-16,22.82,24.61,24.61,0,0,0,2.1,10A23.67,23.67,0,0,1,32,155.47a127.41,127.41,0,0,1,101.58,6.22L197.08,193l62.09,30.57,93.33,46a12.51,12.51,0,0,0,12.62-.93l47.35-32.73A63.71,63.71,0,0,1,472.16,229Z" transform="translate(-10 -121.79)"/><path class="cls-3" d="M312,130.75l30.93,18.81-83.76,54L197.08,173Z" transform="translate(-10 -121.79)"/><path class="cls-4" d="M259.17,203.54l83.76-54-14-9-105.76,45Z" transform="translate(-10 -121.79)"/><path class="cls-5" d="M259.17,203.54l83.76-54-9-6-98.76,48Z" transform="translate(-10 -121.79)"/><path class="cls-3" d="M247.2,249.45l8.09,21.39,42.88,113.4H248.28L160,231.78l-12.58-21.73Z" transform="translate(-10 -121.79)"/><path class="cls-4" d="M277.17,384.24h19l-42.88-113.4-8.09-21.39-36-14Z" transform="translate(-10 -121.79)"/><path class="cls-5" d="M287.17,384.24h9l-42.88-113.4-8.09-21.39-18-7Z" transform="translate(-10 -121.79)"/><path class="cls-6" d="M29.91,129.83a30.27,30.27,0,0,0-.77,56.59l126.71,50.17,87.24,150.66a6,6,0,0,0,5.19,3h49.89a5.9,5.9,0,0,0,2.12-.39,6,6,0,0,0,3.49-7.73L265.5,280.88,347,312.25a38.72,38.72,0,0,0,13.34,2.46c.67,0,1.34,0,2,0a70.45,70.45,0,0,0,44.31-16l93.17-75.64a5.83,5.83,0,0,0,1.79-2.45,6,6,0,0,0-3.37-7.78l-23.85-9.45a69.6,69.6,0,0,0-65.3,7.47l-50.49,34.9-87.24-42.95,74.84-48.24a5.88,5.88,0,0,0,1.88-1.93,6,6,0,0,0-2-8.24l-30.92-18.81a6,6,0,0,0-5.19-.5L197.42,166.45,136.2,136.31a133.81,133.81,0,0,0-106.29-6.48Zm228.86,66.82-46.48-22.88,99.06-36.4,20.27,12.33ZM161.24,222l81.29,32.09,47,124.19H251.74ZM33.55,175.26A18.27,18.27,0,0,1,34,141.11a121.79,121.79,0,0,1,96.8,5.92L356.44,258.12a6,6,0,0,0,6.06-.45l53.39-36.9A57.59,57.59,0,0,1,470,214.59l14.32,5.67-85.2,69.17a58.35,58.35,0,0,1-38.42,13.29,26.69,26.69,0,0,1-9.32-1.65l-91.51-35.24-7-18.5a6,6,0,0,0-3.41-3.46l-99.79-39.4a6,6,0,0,0-7.4,8.59l3.93,6.78L33.55,175.26Z" transform="translate(-10 -121.79)"/></svg>